<svg width="572" height="160" viewBox="0 0 572 160" fill="none" xmlns="http://www.w3.org/2000/svg">
<path d="M524 124.043V118.134C523.149 117.983 522.286 117.905 521.421 117.901H521.3C517.439 117.901 513.708 119.379 510.111 122.334L509.713 118.996H504.078V158.276H510.825V126.512C513.708 124.736 516.936 123.848 520.507 123.848C521.674 123.875 522.838 123.941 524 124.043ZM494.674 140.084V138.558C494.674 131.986 493.286 126.9 490.508 123.3C487.73 119.7 483.589 117.901 478.087 117.901C472.848 117.901 468.669 119.675 465.547 123.222C462.425 126.769 460.865 131.933 460.865 138.714C460.865 145.94 462.597 151.26 466.062 154.676C469.264 157.832 474.013 159.41 480.309 159.41C482.195 159.41 484.221 159.274 486.386 159C488.551 158.726 490.47 158.354 492.144 157.885L491.461 152.917C488.087 153.595 484.793 153.933 481.579 153.933C479.145 153.933 477.115 153.698 475.488 153.229C473.86 152.76 472.504 152.017 471.42 150.999C469.092 148.861 467.927 145.522 467.927 140.984H493.679C494.342 140.984 494.674 140.684 494.674 140.084ZM487.928 136.093H467.928C467.981 132.024 468.86 128.869 470.567 126.626C472.274 124.383 474.78 123.26 478.087 123.26C481.288 123.26 483.702 124.409 485.328 126.704C486.956 129 487.821 132.129 487.928 136.093ZM447.174 159.41C450.031 159.41 452.756 159.058 455.349 158.354L455.031 153.464C452.993 153.907 450.997 154.129 449.04 154.129C446.551 154.129 444.846 153.62 443.92 152.603C443.365 152.003 442.994 151.195 442.809 150.177C442.623 149.16 442.531 147.661 442.531 145.678V123.888H453.007V118.998H442.531V108.589C440.468 108.589 438.218 108.994 435.786 109.802V119.113L428.563 120.131V123.886H435.786V146.578C435.786 149.081 435.958 151.057 436.301 152.504C436.633 153.929 437.314 155.252 438.286 156.357C439.158 157.375 440.37 158.138 441.916 158.647C443.463 159.155 445.216 159.409 447.175 159.409L447.174 159.41ZM415.389 158.276H422.135V131.595C422.135 126.952 421.024 123.535 418.802 121.344C416.526 119.049 413.193 117.901 408.802 117.901C406.526 117.901 404.199 118.244 401.817 118.932C399.448 119.614 397.18 120.601 395.072 121.868L394.754 118.996H389.119V158.276H395.866V126.277C397.505 125.52 399.323 124.9 401.322 124.417C403.318 123.934 405.217 123.691 407.016 123.691C409.953 123.717 412.095 124.397 413.445 125.728C414.132 126.407 414.628 127.269 414.932 128.313C415.237 129.357 415.389 130.701 415.389 132.346V158.276ZM379.714 140.084V138.558C379.714 131.986 378.326 126.9 375.548 123.3C372.769 119.7 368.629 117.901 363.127 117.901C357.889 117.901 353.708 119.675 350.587 123.222C347.465 126.769 345.905 131.933 345.905 138.714C345.905 145.94 347.637 151.26 351.103 154.676C354.304 157.832 359.054 159.41 365.35 159.41C367.235 159.41 369.261 159.274 371.427 159C373.592 158.726 375.511 158.354 377.184 157.885L376.502 152.917C373.128 153.595 369.834 153.933 366.62 153.933C364.185 153.933 362.155 153.698 360.529 153.229C358.901 152.76 357.545 152.017 356.461 150.999C354.132 148.861 352.968 145.522 352.968 140.984H378.72C379.383 140.984 379.714 140.684 379.714 140.084ZM372.969 136.093H352.968C353.021 132.024 353.901 128.869 355.608 126.626C357.314 124.383 359.821 123.26 363.128 123.26C366.328 123.26 368.742 124.409 370.369 126.704C371.997 129 372.862 132.129 372.969 136.093ZM320.23 150.256C318.008 147.726 316.897 143.984 316.897 139.028C316.897 133.76 318.008 129.814 320.23 127.193C322.453 124.571 325.865 123.26 330.468 123.26C332.637 123.26 335.402 123.587 338.763 124.238L339.158 119.114C336.065 118.303 332.876 117.895 329.675 117.901C323.326 117.901 318.445 119.688 315.031 123.26C311.566 126.965 309.833 132.259 309.833 139.145C309.833 145.822 311.593 150.947 315.111 154.52C318.365 157.78 323.193 159.41 329.595 159.41C331.05 159.41 332.756 159.286 334.714 159.039C336.672 158.791 338.299 158.484 339.595 158.12L339.079 153.151C337.995 153.359 336.665 153.542 335.092 153.699C333.518 153.855 332.083 153.933 330.786 153.933C325.918 153.933 322.399 152.707 320.23 150.256ZM293.999 158.276H300.746V131.595C300.746 126.952 299.634 123.535 297.412 121.344C295.137 119.049 291.803 117.901 287.412 117.901C285.136 117.901 282.809 118.244 280.428 118.932C278.058 119.614 275.79 120.601 273.682 121.868L273.364 118.996H267.729V158.276H274.476V126.277C276.116 125.52 277.934 124.9 279.932 124.417C281.93 123.934 283.827 123.691 285.626 123.691C288.563 123.717 290.706 124.397 292.055 125.728C292.743 126.407 293.239 127.269 293.543 128.313C293.847 129.357 293.999 130.701 293.999 132.346V158.276ZM258.325 140.084V138.558C258.325 131.986 256.936 126.9 254.158 123.3C251.38 119.7 247.24 117.901 241.738 117.901C236.499 117.901 232.319 119.675 229.198 123.222C226.076 126.769 224.516 131.933 224.516 138.714C224.516 145.94 226.247 151.26 229.713 154.676C232.914 157.832 237.663 159.41 243.96 159.41C245.846 159.41 247.871 159.274 250.037 159C252.201 158.726 254.121 158.354 255.795 157.885L255.112 152.917C251.738 153.595 248.444 153.933 245.23 153.933C242.795 153.933 240.766 153.698 239.139 153.229C237.511 152.76 236.155 152.017 235.071 150.999C232.743 148.861 231.578 145.522 231.578 140.984H257.33C257.993 140.984 258.325 140.684 258.325 140.084ZM251.579 136.093H231.579C231.632 132.024 232.511 128.869 234.218 126.626C235.925 124.383 238.429 123.26 241.738 123.26C244.938 123.26 247.353 124.409 248.98 126.704C250.607 129 251.473 132.129 251.579 136.093ZM209.833 158.276H215.269V101H208.523V120.698C206.962 119.859 205.25 119.181 203.384 118.67C201.519 118.157 199.714 117.901 197.967 117.901C192.755 117.901 188.702 119.768 185.805 123.501C182.908 127.234 181.46 132.364 181.46 138.89C181.46 145.614 182.842 150.714 185.607 154.192C188.371 157.671 192.333 159.41 197.491 159.41C199.325 159.41 201.349 159.091 203.568 158.451C205.786 157.813 207.705 156.959 209.326 155.889L209.833 158.276ZM208.523 151.628C207.044 152.34 205.494 152.903 203.9 153.308C202.274 153.725 200.758 153.933 199.356 153.933C195.706 153.933 192.988 152.722 191.202 150.299C189.416 147.877 188.523 144.1 188.523 138.969C188.523 134.072 189.369 130.275 191.063 127.579C192.754 124.883 195.52 123.535 199.356 123.535C200.652 123.535 202.128 123.704 203.781 124.043C205.434 124.381 207.015 124.851 208.523 125.45V151.628ZM165.627 158.276H172.372V131.595C172.372 126.952 171.262 123.535 169.039 121.344C166.764 119.049 163.429 117.901 159.039 117.901C156.764 117.901 154.436 118.244 152.055 118.932C149.686 119.614 147.417 120.601 145.309 121.868L144.992 118.996H139.356V158.276H146.102V126.277C147.743 125.52 149.561 124.9 151.559 124.417C153.556 123.934 155.454 123.691 157.253 123.691C160.19 123.717 162.332 124.397 163.682 125.728C164.369 126.407 164.865 127.269 165.17 128.313C165.474 129.357 165.627 130.701 165.627 132.346V158.276ZM122.372 158.276H128.007V118.996H121.261V151.072C119.511 151.876 117.683 152.5 115.805 152.935C113.86 153.392 112.016 153.621 110.269 153.621C107.332 153.621 105.19 152.954 103.84 151.622C103.152 150.916 102.656 150.04 102.352 148.994C102.048 147.949 101.896 146.602 101.896 144.956V118.996H95.1501V145.679C95.1501 150.348 96.261 153.777 98.4828 155.968C100.759 158.264 104.092 159.411 108.484 159.411C110.759 159.411 113.06 159.062 115.388 158.368C117.726 157.666 119.966 156.679 122.055 155.429L122.372 158.276ZM88.4043 158.276L68.6823 126.156L87.5311 103.464H79.3955L56.2214 131.75V103.464H49V158.276H56.2214V140.827L64.1178 131.437L80.1901 158.276H88.4043Z" fill="#005896"/>
<path d="M557.88 78.51C562.845 78.51 567.29 78.075 571.213 77.208L570.693 66.428C567.081 66.878 564.633 67.104 563.349 67.104C560.363 67.104 558.383 66.531 557.412 65.385C556.439 64.24 555.953 62.139 555.953 59.083V34.656H569.495V24.708H555.953V10.854C550.675 10.854 545.588 11.602 540.693 13.094V24.708L531.839 26.428V34.656H540.693V61.22C540.693 67.192 541.977 71.567 544.547 74.345C547.116 77.122 551.56 78.51 557.88 78.51ZM502.75 62.957C500.336 60.366 499.13 56.236 499.13 50.567C499.13 45.177 500.293 41.213 502.62 38.673C504.98 36.169 508.505 34.917 513.193 34.917C517.464 34.917 521.491 35.421 525.276 36.43L526.213 25.168C521.595 23.89 516.473 23.25 510.849 23.25C506.508 23.25 502.569 23.918 499.032 25.254C495.495 26.59 492.592 28.506 490.324 31.004C486.02 35.931 483.869 42.939 483.869 52.028C483.869 55.017 484.212 57.902 484.895 60.682C485.579 63.462 486.605 65.912 487.973 68.032C492.276 75.018 500.231 78.51 511.839 78.51C514.581 78.51 517.037 78.38 519.208 78.12C521.378 77.86 523.818 77.417 526.527 76.792L525.38 65.8C521.664 66.495 518.036 66.843 514.495 66.843C509.079 66.843 505.163 65.547 502.749 62.956L502.75 62.957ZM477.828 54.396V49.604C477.828 40.646 475.789 34.014 471.713 29.708C467.637 25.403 461.576 23.25 453.531 23.25C445.249 23.25 438.851 25.592 434.337 30.275C429.824 34.959 427.568 41.845 427.568 50.934C427.568 60.352 429.96 67.303 434.743 71.786C437.045 73.906 440.067 75.556 443.805 76.737C447.544 77.919 451.893 78.51 456.855 78.51C462.343 78.51 468.288 77.903 474.691 76.687L473.468 65.594C468.913 66.427 464.501 66.844 460.231 66.844C454.828 66.844 450.856 66.028 448.311 64.396C445.765 62.764 444.389 59.813 444.183 55.542H476.516C477.391 55.577 477.828 55.195 477.828 54.396ZM462.568 45.594H444.183C444.528 38.302 447.609 34.656 453.427 34.656C456.404 34.656 458.672 35.625 460.231 37.561C461.788 39.498 462.568 42.175 462.568 45.594ZM401.891 77H417.151V0.75H401.891V77ZM392.88 54.396V49.604C392.88 40.646 390.841 34.014 386.765 29.708C382.689 25.403 376.628 23.25 368.583 23.25C360.301 23.25 353.903 25.592 349.389 30.275C344.876 34.959 342.62 41.845 342.62 50.934C342.62 60.352 345.012 67.303 349.795 71.786C352.099 73.906 355.119 75.556 358.857 76.737C362.596 77.919 366.945 78.51 371.907 78.51C377.395 78.51 383.34 77.903 389.743 76.687L388.52 65.594C383.965 66.427 379.553 66.844 375.283 66.844C369.88 66.844 365.908 66.028 363.363 64.396C360.817 62.764 359.441 59.813 359.235 55.542H391.568C392.443 55.577 392.88 55.195 392.88 54.396ZM377.62 45.594H359.235C359.58 38.302 362.661 34.656 368.479 34.656C371.456 34.656 373.724 35.625 375.283 37.561C376.84 39.498 377.62 42.175 377.62 45.594ZM327.181 71.609C331.188 67.769 333.193 62.668 333.193 56.303C333.193 51.153 331.608 46.686 329.92 43.984C328.23 41.282 325.125 38.66 322.081 37.199C319.036 35.737 315.095 34.363 310.257 33.075C306.881 32.17 304.305 31.361 302.531 30.647C300.755 29.935 299.276 28.986 298.092 27.803C296.909 26.619 296.317 25.106 296.317 23.261C296.317 20.741 297.231 18.799 299.059 17.434C300.885 16.068 303.94 15.385 308.221 15.385C313.444 15.385 319.216 16.254 325.537 17.99L328.021 5.634C325.277 4.701 322.115 3.974 318.531 3.455C315.013 2.94137 311.463 2.68137 307.908 2.677C299.829 2.677 293.336 4.449 288.424 7.993C283.512 11.537 281.057 16.87 281.057 23.993C281.057 29.282 282.165 33.458 284.383 36.52C286.599 39.582 289.273 41.827 292.404 43.253C295.534 44.68 299.519 46.036 304.357 47.324C309.057 48.507 312.493 49.708 314.669 50.925C316.844 52.144 317.932 54.006 317.932 56.51C317.932 59.852 316.775 62.236 314.46 63.663C312.145 65.089 308.5 65.803 303.523 65.803C300.789 65.803 297.571 65.463 293.864 64.783C290.157 64.105 286.768 63.227 283.694 62.148L281.16 74.79C288.231 77.27 296.172 78.51 304.983 78.51C310.19 78.51 314.558 77.965 318.086 76.876C321.614 75.786 324.646 74.031 327.18 71.609H327.181ZM267.516 36.323C269.703 36.323 271.943 36.462 274.235 36.74V23.56C273.357 23.4193 272.468 23.3504 271.579 23.354C268.869 23.354 266.005 23.844 262.984 24.824C259.964 25.804 257.497 27.169 255.588 28.922L255.068 24.708H241.838V77H257.098V37.578C260.849 36.742 264.32 36.323 267.516 36.323ZM233.14 54.396V49.604C233.14 40.646 231.103 34.014 227.027 29.708C222.951 25.403 216.889 23.25 208.843 23.25C200.561 23.25 194.163 25.592 189.651 30.275C185.137 34.959 182.88 41.845 182.88 50.934C182.88 60.352 185.272 67.303 190.056 71.786C192.359 73.906 195.379 75.556 199.119 76.737C202.856 77.919 207.207 78.51 212.167 78.51C217.656 78.51 223.6 77.903 230.004 76.687L228.78 65.594C224.227 66.427 219.813 66.844 215.543 66.844C210.141 66.844 206.168 66.028 203.623 64.396C201.079 62.764 199.703 59.813 199.495 55.542H231.828C232.703 55.577 233.14 55.195 233.14 54.396ZM217.88 45.594H199.495C199.84 38.302 202.923 34.656 208.74 34.656C211.716 34.656 213.984 35.625 215.543 37.561C217.1 39.498 217.88 42.175 217.88 45.594ZM170.447 71.909C174.187 67.508 176.057 60.403 176.057 50.595C176.057 45.552 175.456 41.072 174.256 37.158C173.056 33.244 171.237 30.104 168.801 27.738C165.576 24.747 161.275 23.25 155.901 23.25C150.311 23.25 144.841 25.033 139.495 28.599L139.079 24.709H125.849V101.01H141.109V74.656C143.019 75.872 145.232 76.818 147.749 77.495C150.267 78.172 152.705 78.51 155.068 78.51C161.58 78.51 166.707 76.31 170.447 71.909ZM159.443 50.387C159.443 54.575 159.156 57.819 158.583 60.121C158.011 62.421 157.091 64.048 155.823 64.999C154.555 65.952 152.811 66.427 150.588 66.427H150.172C146.352 66.427 143.331 65.943 141.109 64.973V37.1C142.393 36.755 143.921 36.434 145.693 36.14C147.464 35.846 148.956 35.699 150.172 35.699C152.497 35.699 154.339 36.149 155.693 37.049C157.047 37.949 158.011 39.454 158.583 41.565C159.156 43.675 159.443 46.616 159.443 50.387ZM99.815 77H113.088V24.708H97.828V64.188C96.543 64.639 94.971 65.004 93.115 65.281C91.257 65.559 89.651 65.698 88.297 65.698C85.102 65.698 82.897 65.125 81.682 63.979C80.641 62.937 80.12 61.097 80.12 58.459V24.709H64.86V60.594C64.86 66.844 66.352 71.427 69.339 74.344C70.693 75.698 72.507 76.714 74.781 77.391C77.0891 78.0728 79.4843 78.4147 81.891 78.406C84.739 78.406 87.691 77.99 90.747 77.156C93.7876 76.3297 96.6988 75.0852 99.397 73.458L99.815 77ZM47.077 71.61C51.084 67.77 53.089 62.668 53.089 56.303C53.089 51.153 51.997 47.046 49.815 43.984C47.634 40.922 45.02 38.66 41.977 37.199C38.932 35.737 34.991 34.363 30.153 33.075C26.777 32.17 24.201 31.361 22.426 30.647C20.651 29.935 19.171 28.986 17.989 27.803C16.805 26.619 16.214 25.106 16.214 23.261C16.214 20.741 17.127 18.799 18.954 17.434C20.781 16.068 23.835 15.385 28.117 15.385C33.339 15.385 39.111 16.254 45.433 17.99L47.918 5.634C45.173 4.701 42.01 3.974 38.426 3.455C34.9086 2.94138 31.3587 2.68138 27.804 2.677C19.726 2.677 13.232 4.449 8.32 7.993C3.408 11.537 0.953003 16.87 0.953003 23.993C0.953003 29.282 2.061 33.458 4.278 36.52C6.495 39.582 9.169 41.827 12.3 43.253C15.43 44.68 19.415 46.036 24.254 47.324C28.953 48.507 32.39 49.708 34.564 50.925C36.74 52.144 37.828 54.006 37.828 56.51C37.828 59.852 36.67 62.236 34.356 63.663C32.041 65.089 28.396 65.803 23.418 65.803C20.685 65.803 17.466 65.463 13.76 64.783C10.054 64.105 6.664 63.227 3.59 62.148L1.057 74.79C8.127 77.27 16.069 78.51 24.881 78.51C30.087 78.51 34.454 77.965 37.983 76.876C41.51 75.786 44.542 74.032 47.077 71.61Z" fill="#005896"/>
</svg>
