<svg width="572" height="173" viewBox="0 0 572 173" fill="none" xmlns="http://www.w3.org/2000/svg">
<path d="M571 101.202V97.5599C570.48 97.4673 569.953 97.4192 569.426 97.4167H569.352C566.994 97.4167 564.716 98.3277 562.521 100.149L562.278 98.0913H558.837V122.301H562.956V102.723C564.716 101.629 566.687 101.082 568.868 101.082C569.58 101.099 570.291 101.139 571 101.202ZM553.096 111.088V110.148C553.096 106.097 552.248 102.963 550.552 100.744C548.856 98.5256 546.328 97.4167 542.969 97.4167C539.771 97.4167 537.219 98.5099 535.313 100.696C533.407 102.882 532.454 106.065 532.454 110.244C532.454 114.697 533.512 117.977 535.627 120.082C537.582 122.027 540.482 122.999 544.326 122.999C545.477 122.999 546.714 122.915 548.036 122.747C549.358 122.578 550.529 122.349 551.551 122.06L551.134 118.998C549.074 119.416 547.063 119.624 545.101 119.624C543.615 119.624 542.375 119.479 541.382 119.19C540.388 118.901 539.561 118.443 538.898 117.816C537.477 116.498 536.766 114.44 536.766 111.643H552.488C552.893 111.643 553.096 111.458 553.096 111.088ZM548.977 108.629H536.767C536.799 106.121 537.336 104.177 538.378 102.794C539.42 101.412 540.95 100.72 542.969 100.72C544.923 100.72 546.397 101.428 547.39 102.842C548.384 104.257 548.912 106.186 548.977 108.629ZM524.096 122.999C525.84 122.999 527.504 122.783 529.087 122.349L528.893 119.335C527.648 119.608 526.43 119.745 525.235 119.745C523.715 119.745 522.674 119.431 522.109 118.804C521.77 118.434 521.544 117.936 521.431 117.309C521.317 116.682 521.261 115.758 521.261 114.536V101.106H527.657V98.0923H521.261V91.6771C520.002 91.6771 518.628 91.9267 517.143 92.4247V98.1637L512.733 98.7908V101.105H517.143V115.091C517.143 116.633 517.248 117.852 517.457 118.743C517.66 119.622 518.076 120.437 518.669 121.118C519.202 121.745 519.942 122.215 520.885 122.529C521.83 122.843 522.9 122.999 524.096 122.999L524.096 122.999ZM504.69 122.301H508.809V105.856C508.809 102.995 508.13 100.889 506.774 99.5384C505.385 98.1242 503.349 97.4167 500.668 97.4167C499.279 97.4167 497.858 97.6282 496.404 98.0518C494.958 98.4724 493.573 99.0808 492.286 99.8613L492.092 98.0913H488.652V122.301H492.771V102.579C493.772 102.113 494.882 101.73 496.102 101.432C497.321 101.135 498.48 100.985 499.578 100.985C501.371 101.001 502.679 101.42 503.503 102.241C503.923 102.659 504.226 103.19 504.411 103.834C504.597 104.477 504.69 105.306 504.69 106.319V122.301ZM482.91 111.088V110.148C482.91 106.097 482.062 102.963 480.366 100.744C478.669 98.5256 476.142 97.4167 472.783 97.4167C469.585 97.4167 467.033 98.5099 465.127 100.696C463.221 102.882 462.268 106.065 462.268 110.244C462.268 114.697 463.326 117.977 465.442 120.082C467.396 122.027 470.296 122.999 474.14 122.999C475.291 122.999 476.528 122.915 477.85 122.747C479.172 122.578 480.344 122.349 481.365 122.06L480.949 118.998C478.889 119.416 476.877 119.624 474.915 119.624C473.428 119.624 472.19 119.479 471.196 119.19C470.203 118.901 469.375 118.443 468.713 117.816C467.291 116.498 466.58 114.44 466.58 111.643H482.302C482.707 111.643 482.91 111.458 482.91 111.088ZM478.792 108.629H466.58C466.613 106.121 467.15 104.177 468.192 102.794C469.234 101.412 470.764 100.72 472.783 100.72C474.737 100.72 476.211 101.428 477.204 102.842C478.198 104.257 478.726 106.186 478.792 108.629ZM446.593 117.358C445.237 115.798 444.558 113.492 444.558 110.437C444.558 107.191 445.237 104.759 446.593 103.144C447.95 101.527 450.034 100.72 452.844 100.72C454.168 100.72 455.856 100.921 457.908 101.322L458.149 98.1642C456.261 97.6642 454.314 97.4126 452.36 97.4167C448.484 97.4167 445.503 98.518 443.419 100.72C441.303 103.003 440.245 106.266 440.245 110.51C440.245 114.625 441.32 117.783 443.468 119.986C445.455 121.995 448.402 122.999 452.311 122.999C453.199 122.999 454.241 122.923 455.436 122.771C456.631 122.618 457.625 122.429 458.416 122.204L458.101 119.142C457.439 119.27 456.627 119.383 455.667 119.48C454.706 119.576 453.829 119.624 453.038 119.624C450.066 119.624 447.918 118.868 446.593 117.358ZM430.578 122.301H434.698V105.856C434.698 102.995 434.019 100.889 432.662 99.5384C431.273 98.1242 429.237 97.4167 426.557 97.4167C425.168 97.4167 423.747 97.6282 422.293 98.0518C420.846 98.4724 419.461 99.0808 418.174 99.8613L417.98 98.0913H414.54V122.301H418.659V102.579C419.66 102.113 420.77 101.73 421.99 101.432C423.21 101.135 424.368 100.985 425.467 100.985C427.26 101.001 428.568 101.42 429.391 102.241C429.812 102.659 430.115 103.19 430.3 103.834C430.485 104.477 430.578 105.306 430.578 106.319V122.301ZM408.798 111.088V110.148C408.798 106.097 407.95 102.963 406.254 100.744C404.558 98.5256 402.03 97.4167 398.672 97.4167C395.473 97.4167 392.921 98.5099 391.016 100.696C389.109 102.882 388.157 106.065 388.157 110.244C388.157 114.697 389.214 117.977 391.33 120.082C393.285 122.027 396.184 122.999 400.028 122.999C401.18 122.999 402.416 122.915 403.739 122.747C405.06 122.578 406.232 122.349 407.254 122.06L406.837 118.998C404.777 119.416 402.766 119.624 400.804 119.624C399.317 119.624 398.078 119.479 397.085 119.19C396.091 118.901 395.263 118.443 394.601 117.816C393.18 116.498 392.469 114.44 392.469 111.643H408.191C408.596 111.643 408.798 111.458 408.798 111.088ZM404.68 108.629H392.469C392.501 106.121 393.038 104.177 394.08 102.794C395.122 101.412 396.652 100.72 398.672 100.72C400.625 100.72 402.1 101.428 403.093 102.842C404.087 104.257 404.615 106.186 404.68 108.629ZM379.193 122.301H382.512V87H378.393V99.1405C377.44 98.6233 376.394 98.2052 375.255 97.8904C374.117 97.5746 373.015 97.4167 371.948 97.4167C368.766 97.4167 366.292 98.5671 364.523 100.868C362.754 103.169 361.87 106.331 361.87 110.353C361.87 114.497 362.714 117.64 364.402 119.784C366.089 121.928 368.509 122.999 371.657 122.999C372.777 122.999 374.013 122.803 375.368 122.409C376.722 122.016 377.894 121.489 378.883 120.83L379.193 122.301ZM378.393 118.203C377.49 118.642 376.544 118.989 375.571 119.239C374.578 119.496 373.652 119.624 372.796 119.624C370.568 119.624 368.908 118.878 367.818 117.384C366.728 115.891 366.182 113.564 366.182 110.401C366.182 107.383 366.699 105.043 367.733 103.381C368.766 101.72 370.454 100.889 372.796 100.889C373.588 100.889 374.488 100.993 375.498 101.202C376.507 101.411 377.472 101.7 378.393 102.069V118.203ZM352.204 122.301H356.322V105.856C356.322 102.995 355.644 100.889 354.287 99.5384C352.898 98.1242 350.862 97.4167 348.182 97.4167C346.793 97.4167 345.371 97.6282 343.918 98.0518C342.471 98.4724 341.086 99.0808 339.799 99.8613L339.606 98.0913H336.165V122.301H340.283V102.579C341.285 102.113 342.395 101.73 343.615 101.432C344.834 101.135 345.993 100.985 347.091 100.985C348.884 101.001 350.192 101.42 351.016 102.241C351.436 102.659 351.739 103.19 351.925 103.834C352.111 104.477 352.204 105.306 352.204 106.319V122.301ZM325.796 122.301H329.236V98.0913H325.117V117.861C324.049 118.356 322.933 118.741 321.786 119.009C320.599 119.291 319.473 119.432 318.407 119.432C316.613 119.432 315.305 119.021 314.482 118.199C314.061 117.765 313.759 117.225 313.573 116.58C313.387 115.936 313.294 115.106 313.294 114.091V98.0913H309.176V114.537C309.176 117.414 309.854 119.528 311.211 120.878C312.6 122.293 314.635 123 317.316 123C318.705 123 320.11 122.785 321.532 122.357C322.959 121.925 324.327 121.317 325.602 120.546L325.796 122.301ZM305.057 122.301L293.017 102.504L304.524 88.5189H299.557L285.409 105.952V88.5189H281V122.301H285.409V111.546L290.23 105.759L300.042 122.301H305.057Z" fill="#005896"/>
<path d="M557.88 78.51C562.845 78.51 567.29 78.075 571.213 77.208L570.693 66.428C567.081 66.878 564.633 67.104 563.349 67.104C560.363 67.104 558.383 66.531 557.412 65.385C556.439 64.24 555.953 62.139 555.953 59.083V34.656H569.495V24.708H555.953V10.854C550.675 10.854 545.588 11.602 540.693 13.094V24.708L531.839 26.428V34.656H540.693V61.22C540.693 67.192 541.977 71.567 544.547 74.345C547.116 77.122 551.56 78.51 557.88 78.51ZM502.75 62.957C500.336 60.366 499.13 56.236 499.13 50.567C499.13 45.177 500.293 41.213 502.62 38.673C504.98 36.169 508.505 34.917 513.193 34.917C517.464 34.917 521.491 35.421 525.276 36.43L526.213 25.168C521.595 23.89 516.473 23.25 510.849 23.25C506.508 23.25 502.569 23.918 499.032 25.254C495.495 26.59 492.592 28.506 490.324 31.004C486.02 35.931 483.869 42.939 483.869 52.028C483.869 55.017 484.212 57.902 484.895 60.682C485.579 63.462 486.605 65.912 487.973 68.032C492.276 75.018 500.231 78.51 511.839 78.51C514.581 78.51 517.037 78.38 519.208 78.12C521.378 77.86 523.818 77.417 526.527 76.792L525.38 65.8C521.664 66.495 518.036 66.843 514.495 66.843C509.079 66.843 505.163 65.547 502.749 62.956L502.75 62.957ZM477.828 54.396V49.604C477.828 40.646 475.789 34.014 471.713 29.708C467.637 25.403 461.576 23.25 453.531 23.25C445.249 23.25 438.851 25.592 434.337 30.275C429.824 34.959 427.568 41.845 427.568 50.934C427.568 60.352 429.96 67.303 434.743 71.786C437.045 73.906 440.067 75.556 443.805 76.737C447.544 77.919 451.893 78.51 456.855 78.51C462.343 78.51 468.288 77.903 474.691 76.687L473.468 65.594C468.913 66.427 464.501 66.844 460.231 66.844C454.828 66.844 450.856 66.028 448.311 64.396C445.765 62.764 444.389 59.813 444.183 55.542H476.516C477.391 55.577 477.828 55.195 477.828 54.396ZM462.568 45.594H444.183C444.528 38.302 447.609 34.656 453.427 34.656C456.404 34.656 458.672 35.625 460.231 37.561C461.788 39.498 462.568 42.175 462.568 45.594ZM401.891 77H417.151V0.75H401.891V77ZM392.88 54.396V49.604C392.88 40.646 390.841 34.014 386.765 29.708C382.689 25.403 376.628 23.25 368.583 23.25C360.301 23.25 353.903 25.592 349.389 30.275C344.876 34.959 342.62 41.845 342.62 50.934C342.62 60.352 345.012 67.303 349.795 71.786C352.099 73.906 355.119 75.556 358.857 76.737C362.596 77.919 366.945 78.51 371.907 78.51C377.395 78.51 383.34 77.903 389.743 76.687L388.52 65.594C383.965 66.427 379.553 66.844 375.283 66.844C369.88 66.844 365.908 66.028 363.363 64.396C360.817 62.764 359.441 59.813 359.235 55.542H391.568C392.443 55.577 392.88 55.195 392.88 54.396ZM377.62 45.594H359.235C359.58 38.302 362.661 34.656 368.479 34.656C371.456 34.656 373.724 35.625 375.283 37.561C376.84 39.498 377.62 42.175 377.62 45.594ZM327.181 71.609C331.188 67.769 333.193 62.668 333.193 56.303C333.193 51.153 331.608 46.686 329.92 43.984C328.23 41.282 325.125 38.66 322.081 37.199C319.036 35.737 315.095 34.363 310.257 33.075C306.881 32.17 304.305 31.361 302.531 30.647C300.755 29.935 299.276 28.986 298.092 27.803C296.909 26.619 296.317 25.106 296.317 23.261C296.317 20.741 297.231 18.799 299.059 17.434C300.885 16.068 303.94 15.385 308.221 15.385C313.444 15.385 319.216 16.254 325.537 17.99L328.021 5.634C325.277 4.701 322.115 3.974 318.531 3.455C315.013 2.94137 311.463 2.68137 307.908 2.677C299.829 2.677 293.336 4.449 288.424 7.993C283.512 11.537 281.057 16.87 281.057 23.993C281.057 29.282 282.165 33.458 284.383 36.52C286.599 39.582 289.273 41.827 292.404 43.253C295.534 44.68 299.519 46.036 304.357 47.324C309.057 48.507 312.493 49.708 314.669 50.925C316.844 52.144 317.932 54.006 317.932 56.51C317.932 59.852 316.775 62.236 314.46 63.663C312.145 65.089 308.5 65.803 303.523 65.803C300.789 65.803 297.571 65.463 293.864 64.783C290.157 64.105 286.768 63.227 283.694 62.148L281.16 74.79C288.231 77.27 296.172 78.51 304.983 78.51C310.19 78.51 314.558 77.965 318.086 76.876C321.614 75.786 324.646 74.031 327.18 71.609H327.181ZM267.516 36.323C269.703 36.323 271.943 36.462 274.235 36.74V23.56C273.357 23.4193 272.468 23.3504 271.579 23.354C268.869 23.354 266.005 23.844 262.984 24.824C259.964 25.804 257.497 27.169 255.588 28.922L255.068 24.708H241.838V77H257.098V37.578C260.849 36.742 264.32 36.323 267.516 36.323ZM233.14 54.396V49.604C233.14 40.646 231.103 34.014 227.027 29.708C222.951 25.403 216.889 23.25 208.843 23.25C200.561 23.25 194.163 25.592 189.651 30.275C185.137 34.959 182.88 41.845 182.88 50.934C182.88 60.352 185.272 67.303 190.056 71.786C192.359 73.906 195.379 75.556 199.119 76.737C202.856 77.919 207.207 78.51 212.167 78.51C217.656 78.51 223.6 77.903 230.004 76.687L228.78 65.594C224.227 66.427 219.813 66.844 215.543 66.844C210.141 66.844 206.168 66.028 203.623 64.396C201.079 62.764 199.703 59.813 199.495 55.542H231.828C232.703 55.577 233.14 55.195 233.14 54.396ZM217.88 45.594H199.495C199.84 38.302 202.923 34.656 208.74 34.656C211.716 34.656 213.984 35.625 215.543 37.561C217.1 39.498 217.88 42.175 217.88 45.594ZM170.447 71.909C174.187 67.508 176.057 60.403 176.057 50.595C176.057 45.552 175.456 41.072 174.256 37.158C173.056 33.244 171.237 30.104 168.801 27.738C165.576 24.747 161.275 23.25 155.901 23.25C150.311 23.25 144.841 25.033 139.495 28.599L139.079 24.709H125.849V101.01H141.109V74.656C143.019 75.872 145.232 76.818 147.749 77.495C150.267 78.172 152.705 78.51 155.068 78.51C161.58 78.51 166.707 76.31 170.447 71.909ZM159.443 50.387C159.443 54.575 159.156 57.819 158.583 60.121C158.011 62.421 157.091 64.048 155.823 64.999C154.555 65.952 152.811 66.427 150.588 66.427H150.172C146.352 66.427 143.331 65.943 141.109 64.973V37.1C142.393 36.755 143.921 36.434 145.693 36.14C147.464 35.846 148.956 35.699 150.172 35.699C152.497 35.699 154.339 36.149 155.693 37.049C157.047 37.949 158.011 39.454 158.583 41.565C159.156 43.675 159.443 46.616 159.443 50.387ZM99.815 77H113.088V24.708H97.828V64.188C96.543 64.639 94.971 65.004 93.115 65.281C91.257 65.559 89.651 65.698 88.297 65.698C85.102 65.698 82.897 65.125 81.682 63.979C80.641 62.937 80.12 61.097 80.12 58.459V24.709H64.86V60.594C64.86 66.844 66.352 71.427 69.339 74.344C70.693 75.698 72.507 76.714 74.781 77.391C77.0891 78.0728 79.4843 78.4147 81.891 78.406C84.739 78.406 87.691 77.99 90.747 77.156C93.7876 76.3297 96.6988 75.0852 99.397 73.458L99.815 77ZM47.077 71.61C51.084 67.77 53.089 62.668 53.089 56.303C53.089 51.153 51.997 47.046 49.815 43.984C47.634 40.922 45.02 38.66 41.977 37.199C38.932 35.737 34.991 34.363 30.153 33.075C26.777 32.17 24.201 31.361 22.426 30.647C20.651 29.935 19.171 28.986 17.989 27.803C16.805 26.619 16.214 25.106 16.214 23.261C16.214 20.741 17.127 18.799 18.954 17.434C20.781 16.068 23.835 15.385 28.117 15.385C33.339 15.385 39.111 16.254 45.433 17.99L47.918 5.634C45.173 4.701 42.01 3.974 38.426 3.455C34.9086 2.94138 31.3587 2.68138 27.804 2.677C19.726 2.677 13.232 4.449 8.32 7.993C3.408 11.537 0.953003 16.87 0.953003 23.993C0.953003 29.282 2.061 33.458 4.278 36.52C6.495 39.582 9.169 41.827 12.3 43.253C15.43 44.68 19.415 46.036 24.254 47.324C28.953 48.507 32.39 49.708 34.564 50.925C36.74 52.144 37.828 54.006 37.828 56.51C37.828 59.852 36.67 62.236 34.356 63.663C32.041 65.089 28.396 65.803 23.418 65.803C20.685 65.803 17.466 65.463 13.76 64.783C10.054 64.105 6.664 63.227 3.59 62.148L1.057 74.79C8.127 77.27 16.069 78.51 24.881 78.51C30.087 78.51 34.454 77.965 37.983 76.876C41.51 75.786 44.542 74.032 47.077 71.61Z" fill="#005896"/>
</svg>
