<svg width="572" height="173" viewBox="0 0 572 173" fill="none" xmlns="http://www.w3.org/2000/svg">
<path d="M570.26 129.06V121.864C569.238 121.681 568.202 121.586 567.164 121.581H567.019C562.383 121.581 557.904 123.381 553.586 126.979L553.108 122.914H546.343V170.746H554.443V132.066C557.904 129.904 561.779 128.823 566.067 128.823C567.467 128.856 568.865 128.936 570.26 129.06ZM535.053 148.593V146.735C535.053 138.732 533.386 132.539 530.051 128.155C526.716 123.772 521.745 121.581 515.139 121.581C508.85 121.581 503.832 123.741 500.085 128.06C496.336 132.38 494.463 138.668 494.463 146.925C494.463 155.724 496.543 162.203 500.703 166.363C504.547 170.206 510.248 172.127 517.807 172.127C520.071 172.127 522.504 171.961 525.103 171.628C527.702 171.294 530.006 170.841 532.015 170.27L531.196 164.22C527.145 165.046 523.19 165.458 519.332 165.458C516.41 165.458 513.972 165.172 512.019 164.6C510.065 164.029 508.437 163.124 507.135 161.885C504.34 159.281 502.942 155.215 502.942 149.689H533.858C534.654 149.689 535.053 149.324 535.053 148.593ZM526.954 143.734H502.943C503.006 138.779 504.062 134.937 506.111 132.205C508.16 129.474 511.169 128.107 515.139 128.107C518.982 128.107 521.88 129.506 523.833 132.3C525.787 135.096 526.826 138.907 526.954 143.734ZM478.027 172.127C481.457 172.127 484.728 171.699 487.841 170.841L487.46 164.887C485.013 165.426 482.616 165.696 480.267 165.696C477.279 165.696 475.232 165.077 474.12 163.838C473.454 163.107 473.009 162.123 472.786 160.884C472.563 159.646 472.453 157.82 472.453 155.406V128.871H485.03V122.916H472.453V110.241C469.976 110.241 467.275 110.734 464.355 111.718V123.057L455.683 124.296V128.869H464.355V156.501C464.355 159.549 464.561 161.956 464.973 163.718C465.372 165.453 466.19 167.064 467.356 168.41C468.403 169.649 469.858 170.578 471.714 171.198C473.572 171.817 475.676 172.126 478.028 172.126L478.027 172.127ZM439.868 170.746H447.966V138.256C447.966 132.602 446.632 128.441 443.965 125.773C441.233 122.979 437.231 121.581 431.959 121.581C429.227 121.581 426.433 121.999 423.574 122.836C420.73 123.667 418.006 124.869 415.476 126.411L415.094 122.914H408.329V170.746H416.429V131.78C418.397 130.859 420.58 130.103 422.979 129.515C425.376 128.927 427.655 128.631 429.815 128.631C433.341 128.663 435.913 129.491 437.533 131.112C438.358 131.939 438.954 132.988 439.319 134.26C439.685 135.531 439.868 137.168 439.868 139.171V170.746ZM397.038 148.593V146.735C397.038 138.732 395.371 132.539 392.036 128.155C388.7 123.772 383.73 121.581 377.124 121.581C370.836 121.581 365.817 123.741 362.07 128.06C358.321 132.38 356.448 138.668 356.448 146.925C356.448 155.724 358.528 162.203 362.689 166.363C366.532 170.206 372.234 172.127 379.793 172.127C382.056 172.127 384.488 171.961 387.089 171.628C389.688 171.294 391.992 170.841 394.001 170.27L393.182 164.22C389.131 165.046 385.176 165.458 381.318 165.458C378.394 165.458 375.958 165.172 374.005 164.6C372.051 164.029 370.423 163.124 369.121 161.885C366.326 159.281 364.928 155.215 364.928 149.689H395.844C396.64 149.689 397.038 149.324 397.038 148.593ZM388.94 143.734H364.928C364.992 138.779 366.048 134.937 368.097 132.205C370.146 129.474 373.155 128.107 377.125 128.107C380.967 128.107 383.866 129.506 385.819 132.3C387.773 135.096 388.812 138.907 388.94 143.734ZM325.625 160.98C322.957 157.899 321.623 153.342 321.623 147.307C321.623 140.892 322.957 136.087 325.625 132.896C328.293 129.703 332.39 128.107 337.916 128.107C340.52 128.107 343.839 128.505 347.874 129.298L348.349 123.058C344.635 122.07 340.807 121.573 336.964 121.581C329.342 121.581 323.481 123.757 319.383 128.107C315.223 132.618 313.142 139.065 313.142 147.45C313.142 155.581 315.255 161.821 319.479 166.173C323.386 170.142 329.182 172.127 336.868 172.127C338.614 172.127 340.663 171.976 343.013 171.675C345.364 171.374 347.317 171 348.873 170.556L348.254 164.505C346.952 164.759 345.356 164.981 343.467 165.173C341.577 165.363 339.854 165.458 338.297 165.458C332.453 165.458 328.229 163.965 325.625 160.98ZM294.133 170.746H302.233V138.256C302.233 132.602 300.898 128.441 298.231 125.773C295.499 122.979 291.496 121.581 286.225 121.581C283.493 121.581 280.699 121.999 277.84 122.836C274.995 123.667 272.272 124.869 269.741 126.411L269.36 122.914H262.595V170.746H270.695V131.78C272.663 130.859 274.846 130.103 277.245 129.515C279.643 128.927 281.921 128.631 284.081 128.631C287.607 128.663 290.179 129.491 291.799 131.112C292.625 131.939 293.221 132.988 293.585 134.26C293.95 135.531 294.133 137.168 294.133 139.171V170.746ZM251.304 148.593V146.735C251.304 138.732 249.637 132.539 246.302 128.155C242.967 123.772 237.996 121.581 231.391 121.581C225.102 121.581 220.083 123.741 216.336 128.06C212.588 132.38 210.715 138.668 210.715 146.925C210.715 155.724 212.794 162.203 216.955 166.363C220.798 170.206 226.499 172.127 234.059 172.127C236.323 172.127 238.754 171.961 241.355 171.628C243.953 171.294 246.257 170.841 248.267 170.27L247.447 164.22C243.397 165.046 239.442 165.458 235.584 165.458C232.66 165.458 230.224 165.172 228.271 164.6C226.317 164.029 224.689 163.124 223.387 161.885C220.592 159.281 219.194 155.215 219.194 149.689H250.11C250.906 149.689 251.304 149.324 251.304 148.593ZM243.206 143.734H219.195C219.258 138.779 220.314 134.937 222.363 132.205C224.412 129.474 227.419 128.107 231.391 128.107C235.233 128.107 238.132 129.506 240.085 132.3C242.039 135.096 243.078 138.907 243.206 143.734ZM193.088 170.746H199.614V101H191.515V124.987C189.641 123.965 187.585 123.139 185.345 122.517C183.106 121.893 180.939 121.581 178.842 121.581C172.585 121.581 167.719 123.854 164.241 128.4C160.763 132.946 159.024 139.193 159.024 147.14C159.024 155.327 160.684 161.538 164.003 165.773C167.321 170.01 172.078 172.127 178.27 172.127C180.472 172.127 182.902 171.739 185.566 170.96C188.229 170.183 190.533 169.143 192.479 167.84L193.088 170.746ZM191.515 162.651C189.739 163.518 187.879 164.204 185.965 164.697C184.013 165.205 182.193 165.458 180.509 165.458C176.128 165.458 172.864 163.983 170.72 161.033C168.576 158.083 167.504 153.484 167.504 147.236C167.504 141.272 168.52 136.649 170.553 133.366C172.584 130.083 175.904 128.441 180.509 128.441C182.066 128.441 183.837 128.647 185.822 129.06C187.807 129.472 189.704 130.044 191.515 130.773V162.651ZM140.016 170.746H148.114V138.256C148.114 132.602 146.781 128.441 144.113 125.773C141.381 122.979 137.378 121.581 132.107 121.581C129.376 121.581 126.581 121.999 123.723 122.836C120.878 123.667 118.154 124.869 115.623 126.411L115.243 122.914H108.477V170.746H116.575V131.78C118.546 130.859 120.728 130.103 123.127 129.515C125.525 128.927 127.803 128.631 129.963 128.631C133.489 128.663 136.061 129.491 137.681 131.112C138.506 131.939 139.102 132.988 139.468 134.26C139.833 135.531 140.016 137.168 140.016 139.171V170.746ZM88.0869 170.746H94.852V122.914H86.7523V161.974C84.6524 162.953 82.4574 163.713 80.2021 164.243C77.8678 164.799 75.6533 165.078 73.5568 165.078C70.0306 165.078 67.4585 164.266 65.8386 162.643C65.0117 161.784 64.4171 160.717 64.0521 159.443C63.6863 158.171 63.5042 156.531 63.5042 154.526V122.914H55.4054V155.407C55.4054 161.092 56.7391 165.268 59.4064 167.936C62.1386 170.732 66.1404 172.128 71.4128 172.128C74.1441 172.128 76.9065 171.704 79.7018 170.858C82.5091 170.004 85.1983 168.802 87.7064 167.279L88.0869 170.746ZM47.3067 170.746L23.6295 131.633L46.2584 104.001H36.4912L8.66958 138.445V104.001H0V170.746H8.66958V149.498L18.1496 138.064L37.4452 170.746H47.3067Z" fill="#005896"/>
<path d="M557.88 78.51C562.845 78.51 567.29 78.075 571.213 77.208L570.693 66.428C567.081 66.878 564.633 67.104 563.349 67.104C560.363 67.104 558.383 66.531 557.412 65.385C556.439 64.24 555.953 62.139 555.953 59.083V34.656H569.495V24.708H555.953V10.854C550.675 10.854 545.588 11.602 540.693 13.094V24.708L531.839 26.428V34.656H540.693V61.22C540.693 67.192 541.977 71.567 544.547 74.345C547.116 77.122 551.56 78.51 557.88 78.51ZM502.75 62.957C500.336 60.366 499.13 56.236 499.13 50.567C499.13 45.177 500.293 41.213 502.62 38.673C504.98 36.169 508.505 34.917 513.193 34.917C517.464 34.917 521.491 35.421 525.276 36.43L526.213 25.168C521.595 23.89 516.473 23.25 510.849 23.25C506.508 23.25 502.569 23.918 499.032 25.254C495.495 26.59 492.592 28.506 490.324 31.004C486.02 35.931 483.869 42.939 483.869 52.028C483.869 55.017 484.212 57.902 484.895 60.682C485.579 63.462 486.605 65.912 487.973 68.032C492.276 75.018 500.231 78.51 511.839 78.51C514.581 78.51 517.037 78.38 519.208 78.12C521.378 77.86 523.818 77.417 526.527 76.792L525.38 65.8C521.664 66.495 518.036 66.843 514.495 66.843C509.079 66.843 505.163 65.547 502.749 62.956L502.75 62.957ZM477.828 54.396V49.604C477.828 40.646 475.789 34.014 471.713 29.708C467.637 25.403 461.576 23.25 453.531 23.25C445.249 23.25 438.851 25.592 434.337 30.275C429.824 34.959 427.568 41.845 427.568 50.934C427.568 60.352 429.96 67.303 434.743 71.786C437.045 73.906 440.067 75.556 443.805 76.737C447.544 77.919 451.893 78.51 456.855 78.51C462.343 78.51 468.288 77.903 474.691 76.687L473.468 65.594C468.913 66.427 464.501 66.844 460.231 66.844C454.828 66.844 450.856 66.028 448.311 64.396C445.765 62.764 444.389 59.813 444.183 55.542H476.516C477.391 55.577 477.828 55.195 477.828 54.396ZM462.568 45.594H444.183C444.528 38.302 447.609 34.656 453.427 34.656C456.404 34.656 458.672 35.625 460.231 37.561C461.788 39.498 462.568 42.175 462.568 45.594ZM401.891 77H417.151V0.75H401.891V77ZM392.88 54.396V49.604C392.88 40.646 390.841 34.014 386.765 29.708C382.689 25.403 376.628 23.25 368.583 23.25C360.301 23.25 353.903 25.592 349.389 30.275C344.876 34.959 342.62 41.845 342.62 50.934C342.62 60.352 345.012 67.303 349.795 71.786C352.099 73.906 355.119 75.556 358.857 76.737C362.596 77.919 366.945 78.51 371.907 78.51C377.395 78.51 383.34 77.903 389.743 76.687L388.52 65.594C383.965 66.427 379.553 66.844 375.283 66.844C369.88 66.844 365.908 66.028 363.363 64.396C360.817 62.764 359.441 59.813 359.235 55.542H391.568C392.443 55.577 392.88 55.195 392.88 54.396ZM377.62 45.594H359.235C359.58 38.302 362.661 34.656 368.479 34.656C371.456 34.656 373.724 35.625 375.283 37.561C376.84 39.498 377.62 42.175 377.62 45.594ZM327.181 71.609C331.188 67.769 333.193 62.668 333.193 56.303C333.193 51.153 331.608 46.686 329.92 43.984C328.23 41.282 325.125 38.66 322.081 37.199C319.036 35.737 315.095 34.363 310.257 33.075C306.881 32.17 304.305 31.361 302.531 30.647C300.755 29.935 299.276 28.986 298.092 27.803C296.909 26.619 296.317 25.106 296.317 23.261C296.317 20.741 297.231 18.799 299.059 17.434C300.885 16.068 303.94 15.385 308.221 15.385C313.444 15.385 319.216 16.254 325.537 17.99L328.021 5.634C325.277 4.701 322.115 3.974 318.531 3.455C315.013 2.94137 311.463 2.68137 307.908 2.677C299.829 2.677 293.336 4.449 288.424 7.993C283.512 11.537 281.057 16.87 281.057 23.993C281.057 29.282 282.165 33.458 284.383 36.52C286.599 39.582 289.273 41.827 292.404 43.253C295.534 44.68 299.519 46.036 304.357 47.324C309.057 48.507 312.493 49.708 314.669 50.925C316.844 52.144 317.932 54.006 317.932 56.51C317.932 59.852 316.775 62.236 314.46 63.663C312.145 65.089 308.5 65.803 303.523 65.803C300.789 65.803 297.571 65.463 293.864 64.783C290.157 64.105 286.768 63.227 283.694 62.148L281.16 74.79C288.231 77.27 296.172 78.51 304.983 78.51C310.19 78.51 314.558 77.965 318.086 76.876C321.614 75.786 324.646 74.031 327.18 71.609H327.181ZM267.516 36.323C269.703 36.323 271.943 36.462 274.235 36.74V23.56C273.357 23.4193 272.468 23.3504 271.579 23.354C268.869 23.354 266.005 23.844 262.984 24.824C259.964 25.804 257.497 27.169 255.588 28.922L255.068 24.708H241.838V77H257.098V37.578C260.849 36.742 264.32 36.323 267.516 36.323ZM233.14 54.396V49.604C233.14 40.646 231.103 34.014 227.027 29.708C222.951 25.403 216.889 23.25 208.843 23.25C200.561 23.25 194.163 25.592 189.651 30.275C185.137 34.959 182.88 41.845 182.88 50.934C182.88 60.352 185.272 67.303 190.056 71.786C192.359 73.906 195.379 75.556 199.119 76.737C202.856 77.919 207.207 78.51 212.167 78.51C217.656 78.51 223.6 77.903 230.004 76.687L228.78 65.594C224.227 66.427 219.813 66.844 215.543 66.844C210.141 66.844 206.168 66.028 203.623 64.396C201.079 62.764 199.703 59.813 199.495 55.542H231.828C232.703 55.577 233.14 55.195 233.14 54.396ZM217.88 45.594H199.495C199.84 38.302 202.923 34.656 208.74 34.656C211.716 34.656 213.984 35.625 215.543 37.561C217.1 39.498 217.88 42.175 217.88 45.594ZM170.447 71.909C174.187 67.508 176.057 60.403 176.057 50.595C176.057 45.552 175.456 41.072 174.256 37.158C173.056 33.244 171.237 30.104 168.801 27.738C165.576 24.747 161.275 23.25 155.901 23.25C150.311 23.25 144.841 25.033 139.495 28.599L139.079 24.709H125.849V101.01H141.109V74.656C143.019 75.872 145.232 76.818 147.749 77.495C150.267 78.172 152.705 78.51 155.068 78.51C161.58 78.51 166.707 76.31 170.447 71.909ZM159.443 50.387C159.443 54.575 159.156 57.819 158.583 60.121C158.011 62.421 157.091 64.048 155.823 64.999C154.555 65.952 152.811 66.427 150.588 66.427H150.172C146.352 66.427 143.331 65.943 141.109 64.973V37.1C142.393 36.755 143.921 36.434 145.693 36.14C147.464 35.846 148.956 35.699 150.172 35.699C152.497 35.699 154.339 36.149 155.693 37.049C157.047 37.949 158.011 39.454 158.583 41.565C159.156 43.675 159.443 46.616 159.443 50.387ZM99.815 77H113.088V24.708H97.828V64.188C96.543 64.639 94.971 65.004 93.115 65.281C91.257 65.559 89.651 65.698 88.297 65.698C85.102 65.698 82.897 65.125 81.682 63.979C80.641 62.937 80.12 61.097 80.12 58.459V24.709H64.86V60.594C64.86 66.844 66.352 71.427 69.339 74.344C70.693 75.698 72.507 76.714 74.781 77.391C77.0891 78.0728 79.4843 78.4147 81.891 78.406C84.739 78.406 87.691 77.99 90.747 77.156C93.7876 76.3297 96.6988 75.0852 99.397 73.458L99.815 77ZM47.077 71.61C51.084 67.77 53.089 62.668 53.089 56.303C53.089 51.153 51.997 47.046 49.815 43.984C47.634 40.922 45.02 38.66 41.977 37.199C38.932 35.737 34.991 34.363 30.153 33.075C26.777 32.17 24.201 31.361 22.426 30.647C20.651 29.935 19.171 28.986 17.989 27.803C16.805 26.619 16.214 25.106 16.214 23.261C16.214 20.741 17.127 18.799 18.954 17.434C20.781 16.068 23.835 15.385 28.117 15.385C33.339 15.385 39.111 16.254 45.433 17.99L47.918 5.634C45.173 4.701 42.01 3.974 38.426 3.455C34.9086 2.94138 31.3587 2.68138 27.804 2.677C19.726 2.677 13.232 4.449 8.32 7.993C3.408 11.537 0.953003 16.87 0.953003 23.993C0.953003 29.282 2.061 33.458 4.278 36.52C6.495 39.582 9.169 41.827 12.3 43.253C15.43 44.68 19.415 46.036 24.254 47.324C28.953 48.507 32.39 49.708 34.564 50.925C36.74 52.144 37.828 54.006 37.828 56.51C37.828 59.852 36.67 62.236 34.356 63.663C32.041 65.089 28.396 65.803 23.418 65.803C20.685 65.803 17.466 65.463 13.76 64.783C10.054 64.105 6.664 63.227 3.59 62.148L1.057 74.79C8.127 77.27 16.069 78.51 24.881 78.51C30.087 78.51 34.454 77.965 37.983 76.876C41.51 75.786 44.542 74.032 47.077 71.61Z" fill="#005896"/>
</svg>
