<svg width="572" height="142" viewBox="0 0 572 142" fill="none" xmlns="http://www.w3.org/2000/svg">
<path d="M557.88 78.51C562.845 78.51 567.29 78.075 571.213 77.208L570.693 66.428C567.081 66.878 564.633 67.104 563.349 67.104C560.363 67.104 558.383 66.531 557.412 65.385C556.439 64.24 555.953 62.139 555.953 59.083V34.656H569.495V24.708H555.953V10.854C550.675 10.854 545.588 11.602 540.693 13.094V24.708L531.839 26.428V34.656H540.693V61.22C540.693 67.192 541.977 71.567 544.547 74.345C547.116 77.122 551.56 78.51 557.88 78.51ZM502.75 62.957C500.336 60.366 499.13 56.236 499.13 50.567C499.13 45.177 500.293 41.213 502.62 38.673C504.98 36.169 508.505 34.917 513.193 34.917C517.464 34.917 521.491 35.421 525.276 36.43L526.213 25.168C521.595 23.89 516.473 23.25 510.849 23.25C506.508 23.25 502.569 23.918 499.032 25.254C495.495 26.59 492.592 28.506 490.324 31.004C486.02 35.931 483.869 42.939 483.869 52.028C483.869 55.017 484.212 57.902 484.895 60.682C485.579 63.462 486.605 65.912 487.973 68.032C492.276 75.018 500.231 78.51 511.839 78.51C514.581 78.51 517.037 78.38 519.208 78.12C521.378 77.86 523.818 77.417 526.527 76.792L525.38 65.8C521.664 66.495 518.036 66.843 514.495 66.843C509.079 66.843 505.163 65.547 502.749 62.956L502.75 62.957ZM477.828 54.396V49.604C477.828 40.646 475.789 34.014 471.713 29.708C467.637 25.403 461.576 23.25 453.531 23.25C445.249 23.25 438.851 25.592 434.337 30.275C429.824 34.959 427.568 41.845 427.568 50.934C427.568 60.352 429.96 67.303 434.743 71.786C437.045 73.906 440.067 75.556 443.805 76.737C447.544 77.919 451.893 78.51 456.855 78.51C462.343 78.51 468.288 77.903 474.691 76.687L473.468 65.594C468.913 66.427 464.501 66.844 460.231 66.844C454.828 66.844 450.856 66.028 448.311 64.396C445.765 62.764 444.389 59.813 444.183 55.542H476.516C477.391 55.577 477.828 55.195 477.828 54.396ZM462.568 45.594H444.183C444.528 38.302 447.609 34.656 453.427 34.656C456.404 34.656 458.672 35.625 460.231 37.561C461.788 39.498 462.568 42.175 462.568 45.594ZM401.891 77H417.151V0.75H401.891V77ZM392.88 54.396V49.604C392.88 40.646 390.841 34.014 386.765 29.708C382.689 25.403 376.628 23.25 368.583 23.25C360.301 23.25 353.903 25.592 349.389 30.275C344.876 34.959 342.62 41.845 342.62 50.934C342.62 60.352 345.012 67.303 349.795 71.786C352.099 73.906 355.119 75.556 358.857 76.737C362.596 77.919 366.945 78.51 371.907 78.51C377.395 78.51 383.34 77.903 389.743 76.687L388.52 65.594C383.965 66.427 379.553 66.844 375.283 66.844C369.88 66.844 365.908 66.028 363.363 64.396C360.817 62.764 359.441 59.813 359.235 55.542H391.568C392.443 55.577 392.88 55.195 392.88 54.396ZM377.62 45.594H359.235C359.58 38.302 362.661 34.656 368.479 34.656C371.456 34.656 373.724 35.625 375.283 37.561C376.84 39.498 377.62 42.175 377.62 45.594ZM327.181 71.609C331.188 67.769 333.193 62.668 333.193 56.303C333.193 51.153 331.608 46.686 329.92 43.984C328.23 41.282 325.125 38.66 322.081 37.199C319.036 35.737 315.095 34.363 310.257 33.075C306.881 32.17 304.305 31.361 302.531 30.647C300.755 29.935 299.276 28.986 298.092 27.803C296.909 26.619 296.317 25.106 296.317 23.261C296.317 20.741 297.231 18.799 299.059 17.434C300.885 16.068 303.94 15.385 308.221 15.385C313.444 15.385 319.216 16.254 325.537 17.99L328.021 5.634C325.277 4.701 322.115 3.974 318.531 3.455C315.013 2.94137 311.463 2.68137 307.908 2.677C299.829 2.677 293.336 4.449 288.424 7.993C283.512 11.537 281.057 16.87 281.057 23.993C281.057 29.282 282.165 33.458 284.383 36.52C286.599 39.582 289.273 41.827 292.404 43.253C295.534 44.68 299.519 46.036 304.357 47.324C309.057 48.507 312.493 49.708 314.669 50.925C316.844 52.144 317.932 54.006 317.932 56.51C317.932 59.852 316.775 62.236 314.46 63.663C312.145 65.089 308.5 65.803 303.523 65.803C300.789 65.803 297.571 65.463 293.864 64.783C290.157 64.105 286.768 63.227 283.694 62.148L281.16 74.79C288.231 77.27 296.172 78.51 304.983 78.51C310.19 78.51 314.558 77.965 318.086 76.876C321.614 75.786 324.646 74.031 327.18 71.609H327.181ZM267.516 36.323C269.703 36.323 271.943 36.462 274.235 36.74V23.56C273.357 23.4193 272.468 23.3504 271.579 23.354C268.869 23.354 266.005 23.844 262.984 24.824C259.964 25.804 257.497 27.169 255.588 28.922L255.068 24.708H241.838V77H257.098V37.578C260.849 36.742 264.32 36.323 267.516 36.323ZM233.14 54.396V49.604C233.14 40.646 231.103 34.014 227.027 29.708C222.951 25.403 216.889 23.25 208.843 23.25C200.561 23.25 194.163 25.592 189.651 30.275C185.137 34.959 182.88 41.845 182.88 50.934C182.88 60.352 185.272 67.303 190.056 71.786C192.359 73.906 195.379 75.556 199.119 76.737C202.856 77.919 207.207 78.51 212.167 78.51C217.656 78.51 223.6 77.903 230.004 76.687L228.78 65.594C224.227 66.427 219.813 66.844 215.543 66.844C210.141 66.844 206.168 66.028 203.623 64.396C201.079 62.764 199.703 59.813 199.495 55.542H231.828C232.703 55.577 233.14 55.195 233.14 54.396ZM217.88 45.594H199.495C199.84 38.302 202.923 34.656 208.74 34.656C211.716 34.656 213.984 35.625 215.543 37.561C217.1 39.498 217.88 42.175 217.88 45.594ZM170.447 71.909C174.187 67.508 176.057 60.403 176.057 50.595C176.057 45.552 175.456 41.072 174.256 37.158C173.056 33.244 171.237 30.104 168.801 27.738C165.576 24.747 161.275 23.25 155.901 23.25C150.311 23.25 144.841 25.033 139.495 28.599L139.079 24.709H125.849V101.01H141.109V74.656C143.019 75.872 145.232 76.818 147.749 77.495C150.267 78.172 152.705 78.51 155.068 78.51C161.58 78.51 166.707 76.31 170.447 71.909ZM159.443 50.387C159.443 54.575 159.156 57.819 158.583 60.121C158.011 62.421 157.091 64.048 155.823 64.999C154.555 65.952 152.811 66.427 150.588 66.427H150.172C146.352 66.427 143.331 65.943 141.109 64.973V37.1C142.393 36.755 143.921 36.434 145.693 36.14C147.464 35.846 148.956 35.699 150.172 35.699C152.497 35.699 154.339 36.149 155.693 37.049C157.047 37.949 158.011 39.454 158.583 41.565C159.156 43.675 159.443 46.616 159.443 50.387ZM99.815 77H113.088V24.708H97.828V64.188C96.543 64.639 94.971 65.004 93.115 65.281C91.257 65.559 89.651 65.698 88.297 65.698C85.102 65.698 82.897 65.125 81.682 63.979C80.641 62.937 80.12 61.097 80.12 58.459V24.709H64.86V60.594C64.86 66.844 66.352 71.427 69.339 74.344C70.693 75.698 72.507 76.714 74.781 77.391C77.0891 78.0728 79.4843 78.4147 81.891 78.406C84.739 78.406 87.691 77.99 90.747 77.156C93.7876 76.3297 96.6988 75.0852 99.397 73.458L99.815 77ZM47.077 71.61C51.084 67.77 53.089 62.668 53.089 56.303C53.089 51.153 51.997 47.046 49.815 43.984C47.634 40.922 45.02 38.66 41.977 37.199C38.932 35.737 34.991 34.363 30.153 33.075C26.777 32.17 24.201 31.361 22.426 30.647C20.651 29.935 19.171 28.986 17.989 27.803C16.805 26.619 16.214 25.106 16.214 23.261C16.214 20.741 17.127 18.799 18.954 17.434C20.781 16.068 23.835 15.385 28.117 15.385C33.339 15.385 39.111 16.254 45.433 17.99L47.918 5.634C45.173 4.701 42.01 3.974 38.426 3.455C34.9086 2.94138 31.3587 2.68138 27.804 2.677C19.726 2.677 13.232 4.449 8.32 7.993C3.408 11.537 0.953003 16.87 0.953003 23.993C0.953003 29.282 2.061 33.458 4.278 36.52C6.495 39.582 9.169 41.827 12.3 43.253C15.43 44.68 19.415 46.036 24.254 47.324C28.953 48.507 32.39 49.708 34.564 50.925C36.74 52.144 37.828 54.006 37.828 56.51C37.828 59.852 36.67 62.236 34.356 63.663C32.041 65.089 28.396 65.803 23.418 65.803C20.685 65.803 17.466 65.463 13.76 64.783C10.054 64.105 6.664 63.227 3.59 62.148L1.057 74.79C8.127 77.27 16.069 78.51 24.881 78.51C30.087 78.51 34.454 77.965 37.983 76.876C41.51 75.786 44.542 74.032 47.077 71.61Z" fill="#005896"/>
<path d="M1 141.332V104.788H5.6465V123.115H5.81445L21.0975 104.788H26.3598L14.8835 118.715L28.1513 141.332H22.9449L11.9725 122.336L5.6465 129.745V141.332H1Z" fill="#005896"/>
<path d="M40.1555 142C37.2444 142 35.1171 141.109 33.7735 139.326C32.4673 137.543 31.8141 134.907 31.8141 131.416V114.258H36.4606V130.803C36.4606 133.365 36.8525 135.222 37.6363 136.374C38.4573 137.488 39.7636 138.045 41.555 138.045C42.9732 138.045 44.2235 137.692 45.3058 136.986C46.3881 136.244 47.5824 135.074 48.8886 133.477V114.258H53.4792V141.332H49.6724L49.2805 137.098H49.1126C47.8437 138.583 46.5001 139.772 45.0819 140.663C43.701 141.554 42.0588 142 40.1555 142Z" fill="#005896"/>
<path d="M62.6572 141.332V114.258H66.4639L66.8558 118.158H67.0238C68.33 116.858 69.6922 115.781 71.1104 114.927C72.566 114.035 74.2454 113.59 76.1488 113.59C79.0226 113.59 81.1126 114.481 82.4188 116.264C83.7624 118.046 84.4341 120.683 84.4341 124.174V141.332H79.8436V124.787C79.8436 122.224 79.4331 120.386 78.612 119.272C77.791 118.12 76.4847 117.545 74.6933 117.545C73.2751 117.545 72.0248 117.898 70.9425 118.603C69.8602 119.309 68.6286 120.349 67.2477 121.723V141.332H62.6572Z" fill="#005896"/>
<path d="M102.565 142C99.1318 142 96.3886 140.774 94.336 138.323C92.3206 135.872 91.3129 132.381 91.3129 127.851C91.3129 125.659 91.6302 123.691 92.2646 121.946C92.9364 120.163 93.8135 118.659 94.8958 117.433C95.9781 116.208 97.2284 115.261 98.6466 114.592C100.065 113.924 101.558 113.59 103.125 113.59C104.693 113.59 106.055 113.868 107.212 114.425C108.369 114.982 109.544 115.744 110.739 116.709L110.515 112.086V101.668H115.161V141.332H111.354L110.963 138.156H110.795C109.712 139.196 108.462 140.106 107.044 140.886C105.663 141.629 104.17 142 102.565 142ZM103.573 138.156C104.842 138.156 106.036 137.859 107.156 137.265C108.275 136.634 109.395 135.687 110.515 134.424V120.274C109.358 119.235 108.238 118.51 107.156 118.102C106.111 117.656 105.029 117.433 103.909 117.433C102.827 117.433 101.8 117.693 100.83 118.213C99.8968 118.696 99.0758 119.402 98.3667 120.33C97.6576 121.221 97.0977 122.298 96.6872 123.561C96.2767 124.824 96.0714 126.235 96.0714 127.795C96.0714 131.063 96.7245 133.607 98.0308 135.427C99.337 137.246 101.184 138.156 103.573 138.156Z" fill="#005896"/>
<path d="M135.353 142C133.525 142 131.808 141.684 130.203 141.053C128.635 140.385 127.255 139.456 126.06 138.268C124.903 137.042 123.989 135.557 123.317 133.811C122.645 132.066 122.309 130.079 122.309 127.851C122.309 125.622 122.645 123.635 123.317 121.89C124.026 120.107 124.941 118.603 126.06 117.378C127.217 116.152 128.523 115.224 129.979 114.592C131.435 113.924 132.946 113.59 134.514 113.59C136.23 113.59 137.76 113.887 139.104 114.481C140.485 115.075 141.623 115.929 142.519 117.043C143.452 118.158 144.161 119.495 144.646 121.054C145.131 122.614 145.374 124.36 145.374 126.291C145.374 126.774 145.355 127.256 145.318 127.739C145.318 128.185 145.281 128.575 145.206 128.909H126.844C127.031 131.806 127.926 134.108 129.531 135.817C131.173 137.488 133.301 138.323 135.913 138.323C137.219 138.323 138.414 138.138 139.496 137.766C140.616 137.358 141.679 136.838 142.687 136.207L144.31 139.215C143.116 139.957 141.791 140.607 140.336 141.164C138.88 141.721 137.219 142 135.353 142ZM126.788 125.622H141.343C141.343 122.874 140.746 120.794 139.552 119.383C138.395 117.935 136.753 117.211 134.625 117.211C133.655 117.211 132.722 117.396 131.826 117.768C130.968 118.139 130.184 118.696 129.475 119.439C128.766 120.144 128.169 121.017 127.684 122.057C127.236 123.097 126.937 124.285 126.788 125.622Z" fill="#005896"/>
<path d="M152.097 141.332V114.258H155.904L156.296 118.158H156.464C157.77 116.858 159.132 115.781 160.55 114.927C162.006 114.035 163.685 113.59 165.589 113.59C168.463 113.59 170.553 114.481 171.859 116.264C173.202 118.046 173.874 120.683 173.874 124.174V141.332H169.284V124.787C169.284 122.224 168.873 120.386 168.052 119.272C167.231 118.12 165.925 117.545 164.133 117.545C162.715 117.545 161.465 117.898 160.382 118.603C159.3 119.309 158.069 120.349 156.688 121.723V141.332H152.097Z" fill="#005896"/>
<path d="M193.461 142C191.669 142 189.99 141.684 188.422 141.053C186.855 140.422 185.493 139.512 184.336 138.323C183.216 137.098 182.32 135.612 181.649 133.867C181.014 132.084 180.697 130.079 180.697 127.851C180.697 125.585 181.051 123.58 181.761 121.834C182.47 120.052 183.421 118.548 184.616 117.322C185.81 116.096 187.191 115.168 188.758 114.537C190.363 113.905 192.043 113.59 193.797 113.59C195.588 113.59 197.118 113.905 198.387 114.537C199.656 115.168 200.776 115.911 201.746 116.765L199.395 119.773C198.611 119.067 197.771 118.492 196.876 118.046C196.017 117.601 195.047 117.378 193.965 117.378C192.733 117.378 191.595 117.638 190.55 118.158C189.505 118.64 188.609 119.346 187.863 120.274C187.116 121.203 186.519 122.317 186.071 123.617C185.661 124.88 185.455 126.291 185.455 127.851C185.455 129.41 185.661 130.822 186.071 132.084C186.482 133.347 187.042 134.442 187.751 135.371C188.497 136.262 189.393 136.968 190.438 137.488C191.483 137.971 192.621 138.212 193.853 138.212C195.122 138.212 196.279 137.952 197.324 137.432C198.406 136.875 199.376 136.225 200.235 135.482L202.25 138.546C201.018 139.623 199.656 140.477 198.163 141.109C196.67 141.703 195.103 142 193.461 142Z" fill="#005896"/>
<path d="M218.069 142C216.24 142 214.523 141.684 212.918 141.053C211.351 140.385 209.97 139.456 208.776 138.268C207.619 137.042 206.704 135.557 206.033 133.811C205.361 132.066 205.025 130.079 205.025 127.851C205.025 125.622 205.361 123.635 206.033 121.89C206.742 120.107 207.656 118.603 208.776 117.378C209.933 116.152 211.239 115.224 212.695 114.592C214.15 113.924 215.662 113.59 217.229 113.59C218.946 113.59 220.476 113.887 221.82 114.481C223.201 115.075 224.339 115.929 225.235 117.043C226.168 118.158 226.877 119.495 227.362 121.054C227.847 122.614 228.09 124.36 228.09 126.291C228.09 126.774 228.071 127.256 228.034 127.739C228.034 128.185 227.996 128.575 227.922 128.909H209.56C209.746 131.806 210.642 134.108 212.247 135.817C213.889 137.488 216.016 138.323 218.629 138.323C219.935 138.323 221.129 138.138 222.211 137.766C223.331 137.358 224.395 136.838 225.402 136.207L227.026 139.215C225.832 139.957 224.507 140.607 223.051 141.164C221.596 141.721 219.935 142 218.069 142ZM209.504 125.622H224.059C224.059 122.874 223.462 120.794 222.267 119.383C221.111 117.935 219.468 117.211 217.341 117.211C216.371 117.211 215.438 117.396 214.542 117.768C213.684 118.139 212.9 118.696 212.191 119.439C211.482 120.144 210.884 121.017 210.399 122.057C209.951 123.097 209.653 124.285 209.504 125.622Z" fill="#005896"/>
<path d="M234.813 141.332V114.258H238.619L239.011 118.158H239.179C240.486 116.858 241.848 115.781 243.266 114.927C244.721 114.035 246.401 113.59 248.304 113.59C251.178 113.59 253.268 114.481 254.574 116.264C255.918 118.046 256.59 120.683 256.59 124.174V141.332H251.999V124.787C251.999 122.224 251.589 120.386 250.768 119.272C249.946 118.12 248.64 117.545 246.849 117.545C245.431 117.545 244.18 117.898 243.098 118.603C242.016 119.309 240.784 120.349 239.403 121.723V141.332H234.813Z" fill="#005896"/>
<path d="M273.993 142C272.538 142 271.306 141.777 270.298 141.332C269.328 140.886 268.525 140.273 267.891 139.493C267.294 138.713 266.865 137.766 266.603 136.652C266.342 135.538 266.212 134.312 266.212 132.976V117.99H262.181V114.537L266.435 114.258L266.995 106.682H270.858V114.258H278.192V117.99H270.858V133.031C270.858 134.702 271.157 136.002 271.754 136.931C272.388 137.822 273.489 138.268 275.057 138.268C275.542 138.268 276.064 138.193 276.624 138.045C277.184 137.896 277.688 137.729 278.136 137.543L279.031 140.997C278.285 141.257 277.464 141.48 276.568 141.666C275.71 141.889 274.851 142 273.993 142Z" fill="#005896"/>
<path d="M294.607 142C292.778 142 291.061 141.684 289.456 141.053C287.889 140.385 286.508 139.456 285.314 138.268C284.157 137.042 283.242 135.557 282.571 133.811C281.899 132.066 281.563 130.079 281.563 127.851C281.563 125.622 281.899 123.635 282.571 121.89C283.28 120.107 284.194 118.603 285.314 117.378C286.471 116.152 287.777 115.224 289.232 114.592C290.688 113.924 292.199 113.59 293.767 113.59C295.484 113.59 297.014 113.887 298.357 114.481C299.738 115.075 300.877 115.929 301.772 117.043C302.705 118.158 303.415 119.495 303.9 121.054C304.385 122.614 304.627 124.36 304.627 126.291C304.627 126.774 304.609 127.256 304.571 127.739C304.571 128.185 304.534 128.575 304.459 128.909H286.097C286.284 131.806 287.18 134.108 288.785 135.817C290.427 137.488 292.554 138.323 295.166 138.323C296.473 138.323 297.667 138.138 298.749 137.766C299.869 137.358 300.933 136.838 301.94 136.207L303.564 139.215C302.369 139.957 301.045 140.607 299.589 141.164C298.134 141.721 296.473 142 294.607 142ZM286.041 125.622H300.597C300.597 122.874 300 120.794 298.805 119.383C297.648 117.935 296.006 117.211 293.879 117.211C292.909 117.211 291.976 117.396 291.08 117.768C290.221 118.139 289.438 118.696 288.729 119.439C288.019 120.144 287.422 121.017 286.937 122.057C286.489 123.097 286.191 124.285 286.041 125.622Z" fill="#005896"/>
<path d="M311.351 141.332V114.258H315.157L315.549 119.16H315.717C316.65 117.452 317.77 116.096 319.076 115.094C320.42 114.091 321.875 113.59 323.443 113.59C324.525 113.59 325.495 113.775 326.354 114.147L325.458 118.158C325.01 118.009 324.6 117.898 324.226 117.823C323.853 117.749 323.387 117.712 322.827 117.712C321.67 117.712 320.457 118.176 319.188 119.105C317.956 120.033 316.874 121.649 315.941 123.951V141.332H311.351Z" fill="#005896"/>
<path d="M342.414 141.332V104.788H348.012L355.065 124.285C355.513 125.548 355.943 126.829 356.353 128.129C356.801 129.392 357.249 130.654 357.697 131.917H357.921C358.368 130.654 358.779 129.392 359.152 128.129C359.563 126.829 359.992 125.548 360.44 124.285L367.382 104.788H373.036V141.332H368.669V121.221C368.669 119.587 368.744 117.786 368.893 115.818C369.042 113.85 369.173 112.048 369.285 110.414H369.061L366.15 118.715L359.208 137.655H356.129L349.187 118.715L346.276 110.414H346.052C346.164 112.048 346.276 113.85 346.388 115.818C346.538 117.786 346.612 119.587 346.612 121.221V141.332H342.414Z" fill="#005896"/>
<path d="M393.221 142C391.541 142 389.936 141.684 388.406 141.053C386.913 140.422 385.588 139.512 384.432 138.323C383.275 137.098 382.342 135.612 381.632 133.867C380.961 132.084 380.625 130.079 380.625 127.851C380.625 125.585 380.961 123.58 381.632 121.834C382.342 120.052 383.275 118.548 384.432 117.322C385.588 116.096 386.913 115.168 388.406 114.537C389.936 113.905 391.541 113.59 393.221 113.59C394.9 113.59 396.486 113.905 397.979 114.537C399.509 115.168 400.853 116.096 402.01 117.322C403.167 118.548 404.081 120.052 404.753 121.834C405.462 123.58 405.817 125.585 405.817 127.851C405.817 130.079 405.462 132.084 404.753 133.867C404.081 135.612 403.167 137.098 402.01 138.323C400.853 139.512 399.509 140.422 397.979 141.053C396.486 141.684 394.9 142 393.221 142ZM393.221 138.212C394.378 138.212 395.441 137.971 396.412 137.488C397.382 136.968 398.203 136.262 398.875 135.371C399.584 134.442 400.125 133.347 400.498 132.084C400.872 130.822 401.058 129.41 401.058 127.851C401.058 126.291 400.872 124.88 400.498 123.617C400.125 122.317 399.584 121.203 398.875 120.274C398.203 119.346 397.382 118.64 396.412 118.158C395.441 117.638 394.378 117.378 393.221 117.378C392.064 117.378 391 117.638 390.03 118.158C389.059 118.64 388.22 119.346 387.511 120.274C386.839 121.203 386.316 122.317 385.943 123.617C385.57 124.88 385.383 126.291 385.383 127.851C385.383 129.41 385.57 130.822 385.943 132.084C386.316 133.347 386.839 134.442 387.511 135.371C388.22 136.262 389.059 136.968 390.03 137.488C391 137.971 392.064 138.212 393.221 138.212Z" fill="#005896"/>
<path d="M425.018 142C423.749 142 422.424 141.703 421.043 141.109C419.7 140.477 418.431 139.623 417.237 138.546H417.069L416.677 141.332H412.982V101.668H417.572V112.476L417.46 117.378C418.692 116.301 420.036 115.409 421.491 114.704C422.947 113.961 424.44 113.59 425.97 113.59C427.724 113.59 429.273 113.924 430.616 114.592C431.96 115.224 433.079 116.152 433.975 117.378C434.908 118.566 435.599 120.014 436.046 121.723C436.532 123.394 436.774 125.269 436.774 127.349C436.774 129.652 436.457 131.713 435.823 133.533C435.188 135.352 434.33 136.894 433.247 138.156C432.165 139.419 430.915 140.385 429.497 141.053C428.078 141.684 426.586 142 425.018 142ZM424.234 138.156C425.354 138.156 426.38 137.915 427.313 137.432C428.284 136.912 429.105 136.207 429.776 135.315C430.486 134.387 431.027 133.254 431.4 131.917C431.811 130.58 432.016 129.076 432.016 127.405C432.016 125.919 431.885 124.564 431.624 123.338C431.363 122.113 430.933 121.073 430.336 120.219C429.776 119.327 429.03 118.64 428.097 118.158C427.201 117.675 426.119 117.433 424.85 117.433C422.648 117.433 420.222 118.659 417.572 121.11V135.315C418.767 136.355 419.942 137.098 421.099 137.543C422.294 137.952 423.339 138.156 424.234 138.156Z" fill="#005896"/>
<path d="M443.925 141.332V114.258H448.516V141.332H443.925ZM446.276 108.687C445.381 108.687 444.616 108.409 443.981 107.852C443.384 107.295 443.085 106.589 443.085 105.735C443.085 104.844 443.384 104.138 443.981 103.618C444.616 103.061 445.381 102.783 446.276 102.783C447.172 102.783 447.918 103.061 448.516 103.618C449.15 104.138 449.467 104.844 449.467 105.735C449.467 106.589 449.15 107.295 448.516 107.852C447.918 108.409 447.172 108.687 446.276 108.687Z" fill="#005896"/>
<path d="M462.572 142C460.818 142 459.568 141.48 458.821 140.44C458.075 139.4 457.702 137.878 457.702 135.872V101.668H462.292V136.207C462.292 136.949 462.423 137.469 462.684 137.766C462.946 138.063 463.244 138.212 463.58 138.212C463.729 138.212 463.86 138.212 463.972 138.212C464.121 138.212 464.326 138.175 464.588 138.101L465.203 141.554C464.905 141.703 464.55 141.814 464.14 141.889C463.729 141.963 463.207 142 462.572 142Z" fill="#005896"/>
<path d="M472.754 141.332V117.99H469.06V114.537L472.754 114.258V109.969C472.754 107.183 473.389 104.992 474.658 103.395C475.964 101.798 477.979 101 480.704 101C481.562 101 482.365 101.093 483.111 101.279C483.895 101.427 484.604 101.631 485.238 101.891L484.231 105.401C483.223 104.955 482.197 104.732 481.152 104.732C478.614 104.732 477.345 106.478 477.345 109.969V114.258H483.111V117.99H477.345V141.332H472.754Z" fill="#005896"/>
<path d="M496.266 142C493.355 142 491.228 141.109 489.884 139.326C488.578 137.543 487.925 134.907 487.925 131.416V114.258H492.572V130.803C492.572 133.365 492.964 135.222 493.747 136.374C494.568 137.488 495.875 138.045 497.666 138.045C499.084 138.045 500.334 137.692 501.417 136.986C502.499 136.244 503.693 135.074 505 133.477V114.258H509.59V141.332H505.783L505.392 137.098H505.224C503.955 138.583 502.611 139.772 501.193 140.663C499.812 141.554 498.17 142 496.266 142Z" fill="#005896"/>
<path d="M518.768 141.332V114.258H522.575L522.967 118.158H523.135C524.441 116.858 525.803 115.781 527.221 114.927C528.677 114.035 530.356 113.59 532.26 113.59C535.134 113.59 537.224 114.481 538.53 116.264C539.873 118.046 540.545 120.683 540.545 124.174V141.332H535.955V124.787C535.955 122.224 535.544 120.386 534.723 119.272C533.902 118.12 532.596 117.545 530.804 117.545C529.386 117.545 528.136 117.898 527.054 118.603C525.971 119.309 524.74 120.349 523.359 121.723V141.332H518.768Z" fill="#005896"/>
<path d="M549.383 141.332V101.668H553.918V128.519H554.086L565.674 114.258H570.768L561.643 125.121L572 141.332H566.962L559.012 128.296L553.918 134.201V141.332H549.383Z" fill="#005896"/>
</svg>
